<?xml version="1.0" encoding="UTF-8"?>
<svg width="26px" height="24px" viewBox="0 0 26 24" version="1.1" xmlns="http://www.w3.org/2000/svg" xmlns:xlink="http://www.w3.org/1999/xlink">
    <!-- Generator: Sketch 55.1 (78136) - https://sketchapp.com -->
    <title>KECHENG 课程</title>
    <desc>Created with Sketch.</desc>
    <g id="页面1" stroke="none" stroke-width="1" fill="none" fill-rule="evenodd">
        <g id="管理中心" transform="translate(-40.000000, -336.000000)" fill="#0A55D4" fill-rule="nonzero">
            <g id="KECHENG-课程" transform="translate(40.000000, 336.000000)">
                <path d="M13.0000158,18.2373597 L13.0000158,18.2373597 C12.871063,18.2416919 12.7429839,18.2146741 12.6267684,18.1586245 L5.04095002,14.9747428 L5.04095007,14.9747428 C4.67269804,14.8246706 4.43182948,14.4667331 4.43149322,14.0690751 L4.43149322,1.25864353 L4.43149322,1.25864461 C4.43059374,0.929060616 4.59239744,0.620261652 4.86390225,0.433414485 L4.8639023,0.433414451 C5.13840091,0.252026879 5.48620306,0.222375358 5.78744504,0.35467924 L9.95360167,2.1038777 L9.95360168,2.10387771 C10.4445157,2.33030102 10.6589282,2.91181801 10.4325059,3.40273205 C10.218905,3.8658467 9.68551627,4.08735864 9.20668117,3.91180838 L6.39774933,2.73248261 L6.39774933,13.40387 L12.0181666,15.762096 L12.0181666,4.44124948 L12.0181666,4.44125685 C12.019116,4.04432499 12.2596762,3.68726081 12.6271861,3.53728619 L20.2130044,0.353404512 L20.2130044,0.353404506 C20.5158105,0.230982691 20.8588353,0.260226704 21.1365472,0.432139717 L21.1365472,0.432139704 C21.4115193,0.615891992 21.5743761,0.926695246 21.5690838,1.25736983 L21.5690838,14.0690782 L21.5690838,14.0690709 C21.568003,14.4660028 21.3274426,14.823067 20.9599329,14.9730416 L16.8133537,16.7026653 L16.8133537,16.7026653 C16.3057749,16.8887549 15.7434459,16.6281371 15.5573568,16.1205594 C15.3818055,15.6417243 15.6033182,15.1083358 16.0664331,14.8947347 L19.6039849,13.4013192 L19.6039849,2.73163419 L13.9827164,5.08900895 L13.9827164,17.2342344 L13.9827164,17.2342334 C13.9836197,17.5638174 13.821816,17.8726163 13.5503112,18.0594635 L13.5503112,18.0594635 C13.390795,18.1764217 13.1978089,18.23881 13.0000159,18.237363 L13.0000158,18.2373597 Z M13.0000158,23.2530054 L13.0000159,23.2530054 C12.8832715,23.2526617 12.7673794,23.2331067 12.6569857,23.1951244 L0.842022566,18.6165655 L0.842022553,18.6165655 C0.470708895,18.4687827 0.228419904,18.1079679 0.232101538,17.7083442 L0.232101538,6.23258084 L0.232101538,6.23258098 C0.232101538,5.70630526 0.65877433,5.27967213 1.18505271,5.27967213 C1.71132844,5.27967213 2.13796156,5.7063026 2.13796156,6.23258098 C2.13796156,6.23258098 2.13796156,6.23258098 2.13796156,6.23258098 L2.13796156,17.0320727 L13.0000159,21.2454705 L23.8620702,17.0320727 L23.8620702,7.00503724 L23.8620702,7.00503738 C23.8620701,6.47876166 24.2887006,6.05212853 24.814979,6.05212853 C25.3412547,6.05212845 25.7678879,6.478759 25.7678879,7.00503738 C25.7678879,7.00503738 25.7678879,7.00503738 25.7678879,7.00503738 L25.7678879,17.7079189 L25.7678879,17.7079178 C25.7661017,18.1058684 25.5256899,18.4638875 25.1580092,18.6161391 L13.343046,23.194698 L13.3430459,23.194698 C13.2335067,23.2359771 13.1170424,23.2557731 13.0000158,23.2530046 L13.0000158,23.2530054 Z" id="形状"></path>
            </g>
        </g>
    </g>
</svg>