<?xml version="1.0" encoding="UTF-8"?>
<svg width="30px" height="30px" viewBox="0 0 30 30" version="1.1" xmlns="http://www.w3.org/2000/svg" xmlns:xlink="http://www.w3.org/1999/xlink">
    <!-- Generator: Sketch 55.1 (78136) - https://sketchapp.com -->
    <title>资源 2</title>
    <desc>Created with Sketch.</desc>
    <g id="页面1" stroke="none" stroke-width="1" fill="none" fill-rule="evenodd">
        <g id="管理中心" transform="translate(-60.000000, -536.000000)" fill="#FF9D4C" fill-rule="nonzero">
            <g id="资源-2" transform="translate(60.000000, 536.000000)">
                <path d="M26.0293945,0 L7.64707026,0 L7.64707047,0 C5.56435855,0 3.83566422,1.60939158 3.6867775,3.68677729 L3.68677734,3.6867773 C1.6093916,3.83565464 0,5.56435833 0,7.64707021 L0,26.0293941 L0,26.0293946 C0,28.2223008 1.77770215,30 3.97060547,30 L22.3529297,30 L22.3529296,30 C24.4356415,30 26.1643359,28.3906084 26.3132226,26.3132227 L26.3132224,26.3132227 C28.3906081,26.1643454 30,24.4356417 30,22.3529298 L30,3.97060588 L30,3.97060588 C30,1.77769966 28.2223005,0 26.0293943,0 L26.0293945,0 Z M22.3529296,3.67646479 L6.13086909,3.67646479 L6.13086909,3.67646467 C6.27279372,2.95111507 6.90796872,2.4274686 7.64707028,2.42648422 L26.0293945,2.42648422 L26.0293945,2.42648422 C26.8818428,2.42729176 27.5726924,3.11812777 27.5735156,3.970576 L27.5735156,22.3529292 L27.5735156,22.3529382 C27.5725273,23.0920398 27.048876,23.7272107 26.3235264,23.8691335 L26.3235264,7.64707323 L26.3235264,7.64707323 C26.3235264,5.45416701 24.5458271,3.67646782 22.3529209,3.67646782 L22.3529296,3.67646479 Z M2.42648432,13.4558787 L23.8970507,13.4558787 L23.8970507,26.0294234 L23.8970507,26.0294393 C23.8962182,26.8818876 23.2053632,27.5727167 22.352915,27.5735165 L3.97062005,27.5735165 L3.97062007,27.5735165 C3.11817183,27.572709 2.42732222,26.8818729 2.42648432,26.0294247 L2.42648432,13.4558787 Z M3.97057612,6.10294857 L22.3529296,6.10294857 L22.3529296,6.10294857 C23.2053896,6.10375667 23.8962421,6.79461025 23.8970507,7.6470702 L23.8970507,11.0293944 L2.42648428,11.0293944 L2.42648428,7.6470702 L2.42648428,7.64712238 C2.42726302,6.79467415 3.1180751,6.10380111 3.97052334,6.10294857 L3.97057612,6.10294857 Z" id="形状"></path>
                <path d="M20.5697559,9 L20.5697559,9 C20.5697559,9.55228429 21.113785,10 21.7848779,10 C22.4559708,10 23,9.55228429 23,9 C23,9 23,9 23,9 L23,9 C23,8.44771559 22.4559708,8 21.7848779,8 C21.113785,8 20.5697559,8.44771559 20.5697559,9 C20.5697559,9 20.5697559,9 20.5697559,9 L20.5697559,9 Z M5.21512218,10.0000002 L16.2616064,10.0000002 L16.2616064,10.0000002 C16.9326993,10.0000002 17.4767285,9.55228441 17.4767285,9.00000022 C17.4767285,8.44771581 16.9326993,8.00000022 16.2616064,8.00000022 L5.21512213,8.00000022 L5.21512207,8.00000022 C4.54402915,8.00000022 4,8.44771581 4,9.00000022 C4,9.55228441 4.54402915,10.0000002 5.21512207,10.0000002 L5.21512218,10.0000002 Z" id="形状"></path>
            </g>
        </g>
    </g>
</svg>